<svg width="54" height="10" viewBox="0 0 54 10" fill="none" xmlns="http://www.w3.org/2000/svg">
<rect width="54" height="10" fill="black"/>
<g clip-path="url(#clip0)">
<path fill-rule="evenodd" clip-rule="evenodd" d="M7.13099 2.27251C7.13099 2.27251 7.11259 2.32514 6.85392 3.02649C6.11505 2.43814 4.87671 2.48118 4.87671 3.38616C4.87671 4.44767 7.46293 4.31433 7.38255 6.20952C7.31814 7.73109 5.4451 8.08033 4 7.34721C4.12639 7.07918 4.25763 6.82074 4.34721 6.60904C5.43972 7.25507 6.38067 6.95879 6.53518 6.43921C6.95773 5.01736 4.01163 5.45656 4.01163 3.4403C4.01163 2.59233 4.99338 1.27405 7.13099 2.27251Z" fill="white"/>
<path fill-rule="evenodd" clip-rule="evenodd" d="M9.92265 2.15615H13.307C13.307 2.15615 13.2973 2.46096 13.3038 2.89486H10.7702V4.40912H12.5673C12.5608 4.7109 12.564 4.94805 12.564 5.10373H10.7702V6.99148H13.3038C13.302 7.13757 13.301 7.57938 13.3038 7.71621H9.9259L9.92265 2.15615Z" fill="white"/>
<path fill-rule="evenodd" clip-rule="evenodd" d="M17.9837 4.88101C17.7794 4.88101 17.6284 4.87848 17.4212 4.87764C17.4215 3.84028 17.4231 2.87038 17.4231 2.87038C17.4231 2.87038 17.67 2.86937 17.9035 2.86937C18.1267 2.86937 19.4268 2.7681 19.4687 3.80546C19.51 4.82836 18.4867 4.88101 17.9837 4.88101ZM18.034 2.16692C17.7339 2.15968 17.1063 2.15615 16.5706 2.15615L16.5726 7.71621H17.4241C17.4241 7.71621 17.4215 6.6548 17.4212 5.60835C17.6324 5.60482 18.0707 5.59305 18.4246 5.58295C18.9155 5.56849 20.2055 5.32307 20.1967 3.79823C20.1864 2.08449 18.3325 2.17364 18.034 2.16692Z" fill="white"/>
<path fill-rule="evenodd" clip-rule="evenodd" d="M39.8662 4.72999C39.6675 4.72999 39.5239 4.72611 39.3225 4.72477C39.3232 3.74817 39.3256 2.84839 39.3256 2.84839C39.3256 2.84839 39.5582 2.84519 39.7839 2.84519C39.9993 2.84519 41.1511 2.78017 41.2486 3.68601C41.3643 4.7561 40.1015 4.72999 39.8662 4.72999ZM41.7408 7.71587H42.7995L41.0421 5.2214C41.5151 5.04755 42.0634 4.6439 41.9942 3.72155C41.8704 2.06924 40.2557 2.19172 39.9101 2.17571C39.6187 2.1619 38.9921 2.15398 38.4482 2.15667V7.71621H39.3256C39.3256 7.71621 39.3229 6.47209 39.3222 5.37252C39.6128 5.37353 39.7169 5.3683 40.1552 5.35668L41.7408 7.71587Z" fill="white"/>
<path fill-rule="evenodd" clip-rule="evenodd" d="M26.4668 4.25077V2.15615H27.3281V7.47447H26.4668V4.94618L23.596 4.94989V7.47447H22.735V2.15615H23.596V4.25077H26.4668Z" fill="white"/>
<path fill-rule="evenodd" clip-rule="evenodd" d="M33.1828 1.91441C31.3936 1.91441 30.229 3.21331 30.229 4.81515C30.229 6.41765 31.3936 7.71622 33.1828 7.71622C34.972 7.71622 36.1365 6.41765 36.1365 4.81515C36.1365 3.21331 34.972 1.91441 33.1828 1.91441ZM33.1828 2.70393C31.8712 2.70393 31.1262 3.64916 31.1262 4.81515C31.1262 5.9813 31.8639 6.92686 33.1828 6.92686C34.5017 6.92686 35.2393 5.9813 35.2393 4.81515C35.2393 3.64916 34.4944 2.70393 33.1828 2.70393ZM46.6154 5.66805L48.4459 5.65674L47.516 2.94665H47.5038L46.6154 5.66805ZM47.0173 2.07395H48.0359L50.0518 7.58479L49.1505 7.58263C49.1505 7.58263 48.9513 7.02651 48.6855 6.29005L46.4116 6.30403C46.4116 6.30403 46.3203 6.58766 46.0494 7.58296H45.18L47.0173 2.07395Z" fill="white"/>
</g>
<defs>
<clipPath id="clip0">
<rect width="46" height="6.63063" fill="white" transform="translate(4 1.5)"/>
</clipPath>
</defs>
</svg>
